[img]http://www.moviepostershop.com/pranchiyettan-and-the-saint-movie-poster-1020558379.jpg[/img]

[code]
Video
ID                               : 224 (0xE0)
Format                           : MPEG Video
Format version                   : Version 2
Format profile                   : Main@Main
Format settings, BVOP            : Yes
Format settings, Matrix          : Default
Format settings, GOP             : M=1, N=12
Duration                         : 30mn 41s
Bit rate mode                    : Variable
Bit rate                         : 4 123 Kbps
Width                            : 720 pixels
Height                           : 480 pixels
Display aspect ratio             : 4:3
Frame rate                       : 29.970 fps
Standard                         : NTSC
Color space                      : YUV
Chroma subsampling               : 4:2:0
Bit depth                        : 8 bits
Scan type                        : Progressive
Scan order                       : Bottom Field First
Compression mode                 : Lossy
Bits/(Pixel*Frame)               : 0.398
Stream size                      : 905 MiB (88%)
Writing library                  : TMPGEnc 2.524.63.181

Audio
ID                               : 189 (0xBD)-128 (0x80)
Format                           : AC-3
Format/Info                      : Audio Coding 3
Mode extension                   : CM (complete main)
Muxing mode                      : DVD-Video
Duration                         : 30mn 41s
Bit rate mode                    : Constant
Bit rate                         : 448 Kbps
Channel(s)                       : 6 channels
Channel positions                : Front: L C R, Side: L R, LFE
Sampling rate                    : 48.0 KHz
Bit depth                        : 16 bits
Compression mode                 : Lossy
Delay relative to video          : 19ms
Stream size                      : 98.3 MiB (10%)

Text
ID                               : 189 (0xBD)-32 (0x20)
Format                           : RLE
Format/Info                      : Run-length encoding
Muxing mode                      : DVD-Video  
[/code]

[img]http://pic.phyrefile.com/s/sh/shahaz/2011/04/12/1_001.jpg[/img]
[img]http://pic.phyrefile.com/s/sh/shahaz/2011/04/12/2_001.jpg[/img]
[img]http://pic.phyrefile.com/s/sh/shahaz/2011/04/12/3.jpg[/img]
[img]http://pic.phyrefile.com/s/sh/shahaz/2011/04/12/4.jpg[/img]
[img]http://pic.phyrefile.com/s/sh/shahaz/2011/04/12/5.jpg[/img]
[img]http://pic.phyrefile.com/s/sh/shahaz/2011/04/12/6.jpg[/img]
[img]http://pic.phyrefile.com/s/sh/shahaz/2011/04/12/7.jpg[/img]
[img]http://pic.phyrefile.com/s/sh/shahaz/2011/04/12/8.jpg[/img]
[img]http://pic.phyrefile.com/s/sh/shahaz/2011/04/12/9.jpg[/img]
[img]http://pic.phyrefile.com/s/sh/shahaz/2011/04/12/10.jpg[/img]
[img]http://pic.phyrefile.com/s/sh/shahaz/2011/04/12/11_001.jpg[/img]
[img]http://pic.phyrefile.com/s/sh/shahaz/2011/04/12/12.jpg[/img]
